<?xml version="1.0" standalone="no"?>
<!DOCTYPE svg PUBLIC "-//W3C//DTD SVG 20010904//EN"
 "http://www.w3.org/TR/2001/REC-SVG-20010904/DTD/svg10.dtd">
<svg version="1.0" xmlns="http://www.w3.org/2000/svg"
 width="1024.000000pt" height="1024.000000pt" viewBox="0 0 1024.000000 1024.000000"
 preserveAspectRatio="xMidYMid meet">
<metadata>
Created by potrace 1.14, written by Peter Selinger 2001-2017
</metadata>
<g transform="translate(0.000000,1024.000000) scale(0.100000,-0.100000)"
fill="#000000" stroke="none">
<path d="M4975 9234 c-636 -38 -1261 -220 -1850 -537 -430 -231 -859 -578
-1255 -1015 -121 -133 -139 -144 -254 -152 -77 -6 -102 -13 -165 -44 -90 -46
-158 -112 -197 -191 -26 -54 -29 -70 -29 -155 0 -117 21 -167 105 -252 72 -72
122 -88 272 -88 l108 0 0 103 0 102 -79 -3 c-60 -3 -88 0 -115 13 -102 49
-113 181 -21 251 33 25 47 28 126 32 l88 4 3 41 c3 39 5 40 50 52 80 20 123
56 164 138 19 39 42 79 50 88 20 23 103 66 141 74 49 10 137 -19 184 -62 49
-44 63 -71 84 -154 16 -63 18 -66 83 -109 81 -54 121 -119 129 -209 11 -117
-36 -208 -143 -276 -45 -29 -55 -41 -67 -83 -22 -73 -52 -125 -92 -160 -77
-68 -139 -83 -247 -58 -62 15 -124 17 -428 14 l-354 -3 -34 -80 c-190 -453
-292 -1120 -262 -1710 17 -349 55 -587 145 -925 54 -202 75 -264 154 -453 169
-408 365 -729 660 -1087 119 -144 353 -384 490 -502 532 -461 1206 -783 1926
-922 319 -61 424 -70 795 -71 367 0 439 6 758 61 392 67 814 208 1170 390 298
153 626 375 837 567 l59 54 -35 54 c-160 242 -266 412 -287 457 -55 120 -3
238 148 338 22 15 39 30 38 34 -12 26 -165 260 -173 263 -5 2 -43 0 -84 -5
-155 -21 -357 28 -490 117 -178 120 -295 316 -324 544 -18 145 26 334 104 442
l21 30 -30 42 c-89 125 -151 267 -182 417 -31 148 -25 355 14 483 58 194 147
338 296 480 79 75 117 103 206 149 133 69 251 105 393 118 535 50 1018 -311
1116 -835 54 -286 -49 -669 -227 -843 l-44 -42 -34 35 -33 34 -41 -37 c-23
-21 -72 -60 -111 -87 -38 -27 -72 -50 -74 -52 -2 -1 8 -42 22 -90 33 -111 40
-188 28 -285 -22 -167 -88 -296 -218 -427 l-83 -84 71 -111 c40 -61 78 -117
85 -125 10 -11 31 -2 125 55 107 66 115 69 174 69 104 0 145 -29 235 -163 41
-61 77 -111 80 -112 9 0 72 89 135 190 266 431 474 1079 537 1671 19 181 16
645 -5 837 -90 806 -389 1543 -871 2147 -131 164 -451 491 -606 620 -412 340
-894 607 -1400 774 -272 90 -586 160 -857 190 -172 20 -485 32 -608 25z m312
-465 c7 -15 18 -61 25 -102 l12 -77 65 -21 c36 -12 87 -32 113 -45 59 -30 61
-30 111 5 23 15 57 36 75 45 32 16 35 16 60 0 15 -9 69 -58 120 -108 107 -104
105 -98 41 -204 l-41 -67 22 -44 c11 -24 18 -46 15 -49 -6 -7 -153 -47 -234
-64 -46 -10 -55 -9 -62 4 -42 75 -157 176 -254 223 -93 45 -172 59 -298 53
-121 -6 -200 -32 -294 -96 -57 -39 -147 -133 -173 -182 -6 -11 -17 -20 -25
-20 -30 0 -285 95 -285 107 0 2 7 17 15 33 14 28 13 33 -25 109 -22 43 -40 85
-40 91 0 25 215 220 241 220 11 0 52 -20 90 -45 l70 -45 57 28 c31 16 84 39
118 51 l60 22 17 86 c24 128 18 124 221 121 l171 -3 12 -26z m-1390 -555 c31
-5 32 -6 55 -107 l23 -102 91 -45 c50 -25 108 -58 128 -74 l38 -29 86 27 c117
35 154 35 182 -4 41 -58 151 -303 146 -324 -9 -37 -43 -63 -118 -92 -78 -29
-131 -56 -216 -111 -29 -18 -54 -33 -57 -33 -2 0 -9 19 -15 43 -29 108 -121
227 -231 301 -206 136 -478 106 -659 -74 -109 -108 -165 -230 -176 -382 -20
-277 159 -516 429 -572 94 -20 142 -20 232 -1 86 18 175 61 237 115 64 56 139
171 173 266 15 43 37 89 49 100 27 27 329 184 355 184 10 0 41 -16 67 -35 245
-176 505 -178 734 -6 30 23 64 41 76 41 23 0 182 -65 318 -129 l87 -42 41 -85
c22 -47 57 -106 78 -133 78 -98 216 -163 350 -164 71 0 79 2 153 45 176 103
308 114 460 39 45 -22 147 -78 227 -126 80 -47 182 -106 228 -131 48 -27 79
-50 76 -56 -4 -7 -2 -8 4 -4 15 9 55 -18 44 -29 -4 -5 -2 -5 4 -2 14 8 126
-57 116 -67 -3 -4 0 -5 8 -2 8 3 27 -2 42 -12 l27 -18 -34 -1 c-19 -1 -33 2
-31 5 2 4 -39 7 -93 8 -87 1 -91 0 -41 -7 271 -43 449 -39 605 12 78 25 129
67 151 124 16 42 16 48 0 90 -44 113 -213 172 -466 163 -69 -3 -164 -13 -212
-23 l-87 -18 -48 30 c-26 17 -86 52 -132 78 -99 57 -99 58 47 104 157 50 228
63 396 68 392 13 629 -82 727 -290 110 -237 -41 -495 -336 -572 -209 -54 -552
-60 -755 -12 -130 31 -266 82 -388 148 -67 36 -99 48 -117 43 -19 -5 -35 4
-77 43 -29 26 -65 59 -80 72 l-27 24 -93 -38 c-51 -20 -96 -40 -101 -44 -4 -4
-12 -47 -18 -96 -18 -147 0 -135 -198 -135 -123 0 -171 3 -178 13 -8 10 -35
128 -45 200 -2 12 -31 30 -86 54 l-84 36 -46 -45 c-56 -54 -105 -88 -125 -88
-14 0 -169 162 -200 210 -16 24 -14 28 37 123 l52 98 -49 99 c-27 55 -53 100
-58 100 -5 0 -35 -13 -67 -29 -31 -16 -90 -39 -129 -52 -70 -22 -73 -24 -78
-58 -20 -123 -37 -182 -57 -192 -14 -8 -72 -9 -189 -4 l-168 7 -15 67 c-8 36
-18 85 -22 108 -7 48 -13 53 -69 72 -22 7 -75 29 -118 47 -43 19 -81 34 -85
34 -4 0 -31 -51 -60 -113 l-53 -113 45 -88 c26 -51 42 -94 38 -102 -4 -7 -54
-60 -110 -118 -74 -75 -111 -106 -127 -106 -15 0 -50 23 -92 59 l-67 59 -36
-15 c-19 -8 -64 -26 -100 -40 l-65 -24 -25 -111 c-24 -107 -26 -112 -55 -120
-30 -9 -299 -9 -323 0 -12 4 -30 62 -52 164 -10 50 -15 59 -38 64 -15 4 -60
20 -99 36 l-73 30 -52 -45 c-59 -50 -89 -67 -114 -67 -21 0 -234 208 -234 229
0 8 19 52 42 97 l41 83 -44 110 -44 110 -73 18 c-108 25 -107 22 -107 234 0
141 3 182 14 188 7 5 46 14 87 21 41 7 78 18 83 24 4 6 14 29 21 51 7 22 25
68 41 103 l28 63 -34 58 c-67 114 -71 100 52 223 135 136 142 137 254 31 l36
-34 79 36 c43 20 90 42 104 49 21 10 28 26 45 104 11 50 25 96 30 101 17 17
234 20 332 5z m2588 -24 c62 0 63 -1 74 -31 6 -17 16 -70 23 -116 7 -47 17
-86 23 -88 5 -1 40 -12 77 -24 l68 -23 33 21 c18 11 44 32 57 46 28 30 71 55
95 55 23 0 215 -189 215 -212 0 -19 -45 -113 -78 -161 l-19 -28 38 -90 c22
-49 39 -93 39 -99 0 -15 18 -22 103 -39 l82 -17 0 -189 0 -190 -35 -17 c-19
-9 -46 -17 -60 -18 -14 0 -102 40 -195 89 l-169 88 -18 88 c-21 109 -55 179
-120 250 -61 67 -163 121 -261 137 -179 30 -369 -65 -452 -224 -17 -32 -33
-58 -37 -58 -4 0 -29 13 -56 30 -73 44 -188 90 -243 97 -59 7 -108 37 -128 77
-12 25 -10 34 13 90 58 134 124 251 148 263 27 14 86 1 179 -38 l46 -20 69 40
c38 22 88 47 111 56 47 19 46 16 68 142 9 51 22 97 29 102 14 12 112 20 175
15 24 -2 72 -4 106 -4z m1398 -705 c78 -54 119 -174 82 -245 -18 -34 -70 -76
-106 -85 -38 -9 -104 11 -143 45 -78 69 -63 175 38 268 53 49 77 52 129 17z
m-5128 -1259 c253 -66 440 -211 475 -369 7 -31 11 -100 8 -167 -3 -96 -8 -122
-27 -159 -26 -51 -116 -143 -161 -166 -17 -9 -28 -20 -25 -25 3 -6 -1 -7 -9
-4 -12 5 -16 22 -16 70 0 35 -2 64 -5 64 -3 0 -26 -13 -53 -30 -263 -162 -765
-153 -988 16 -17 13 -34 24 -37 24 -4 0 -7 -27 -7 -60 0 -61 -8 -72 -30 -45
-13 16 -35 21 -25 6 3 -5 1 -12 -4 -15 -5 -4 -8 1 -7 10 1 9 -22 41 -52 72
-72 74 -106 147 -106 232 -1 74 17 113 68 148 67 46 166 10 166 -61 0 -75 131
-162 320 -213 90 -25 346 -25 443 -1 194 48 317 127 317 202 0 20 -4 34 -9 30
-5 -3 -13 0 -17 6 -4 8 -3 9 4 5 30 -18 8 28 -31 67 -72 71 -164 111 -332 142
-83 16 -268 17 -315 3 -8 -3 -12 -3 -7 -1 14 8 7 23 -10 23 -31 0 -79 36 -92
69 -24 57 12 120 84 147 67 25 352 13 480 -20z m1939 -176 c78 -33 176 -90
176 -102 0 -4 -11 -8 -23 -8 -52 0 -188 -43 -282 -90 -230 -113 -377 -279
-456 -515 -24 -70 -24 -73 -27 -632 -2 -383 -6 -563 -13 -563 -23 0 -138 129
-168 188 -59 116 -61 137 -61 572 0 361 2 402 20 479 47 195 133 344 278 483
100 94 206 157 332 195 100 29 142 28 224 -7z m-2535 -96 c-6 -8 -22 -14 -35
-14 -27 0 -72 -18 -96 -38 -11 -9 -18 -11 -18 -4 0 14 139 84 152 76 5 -3 4
-12 -3 -20z m41 -4 c0 -5 -5 -10 -11 -10 -5 0 -7 5 -4 10 3 6 8 10 11 10 2 0
4 -4 4 -10z m591 -17 c13 -16 12 -17 -3 -4 -10 7 -18 15 -18 17 0 8 8 3 21
-13z m-773 -54 c13 0 13 -2 -3 -8 -11 -5 -26 -6 -32 -4 -8 3 -13 -3 -14 -13 0
-12 -3 -14 -6 -6 -3 7 3 22 13 33 10 12 20 16 22 10 2 -6 11 -11 20 -12z m892
5 c0 -8 -19 -13 -24 -6 -3 5 1 9 9 9 8 0 15 -2 15 -3z m-885 -34 c3 -5 1 -10
-4 -10 -6 0 -11 5 -11 10 0 6 2 10 4 10 3 0 8 -4 11 -10z m4241 -275 c59 -59
122 -176 144 -270 7 -30 14 -181 17 -380 4 -269 2 -346 -10 -418 -22 -124 -62
-204 -149 -293 -39 -41 -75 -74 -80 -74 -4 0 -8 335 -8 745 0 669 2 745 16
745 8 0 40 -25 70 -55z m-4533 -273 c41 -61 100 -117 163 -153 78 -46 193 -92
216 -86 10 3 16 2 13 -3 -2 -4 37 -16 88 -26 144 -30 389 -25 525 9 132 33
221 69 302 122 61 40 145 120 182 175 16 24 17 21 17 -91 1 -104 -1 -120 -25
-167 -68 -136 -280 -257 -522 -297 -82 -14 -139 -16 -270 -12 -186 6 -283 24
-423 78 -46 18 -86 30 -88 28 -2 -2 -2 -49 -1 -104 6 -298 7 -275 -15 -269
-90 27 -161 100 -193 198 -21 62 -22 86 -22 365 0 290 6 376 21 303 4 -18 18
-49 32 -70z m140 53 c-3 -9 -8 -14 -10 -11 -3 3 -2 9 2 15 9 16 15 13 8 -4z
m102 -56 c-4 -6 0 -9 10 -7 10 2 19 -3 21 -10 1 -7 0 -8 -3 -2 -2 5 -9 8 -14
4 -12 -7 -31 5 -24 17 4 5 8 9 11 9 3 0 2 -5 -1 -11z m-88 -5 c-3 -3 -12 -4
-19 -1 -8 3 -5 6 6 6 11 1 17 -2 13 -5z m210 -71 c-16 -8 -31 -12 -35 -9 -3 3
0 6 7 6 7 0 10 3 8 8 -3 4 7 8 21 9 l27 1 -28 -15z m83 -7 c0 -2 -7 -7 -16
-10 -8 -3 -12 -2 -9 4 6 10 25 14 25 6z m-205 -35 c-3 -6 -11 -11 -16 -11 -5
0 -4 6 3 14 14 16 24 13 13 -3z m2464 -149 c150 -129 347 -220 581 -269 122
-26 489 -26 609 0 73 16 273 73 324 93 17 6 18 -9 15 -352 l-3 -359 -29 -85
c-97 -291 -286 -485 -558 -576 -78 -27 -93 -28 -253 -28 -158 0 -176 1 -250
27 -128 43 -227 107 -335 216 -105 106 -165 200 -211 330 -46 132 -51 188 -47
551 3 323 4 337 26 389 23 54 58 111 69 111 3 0 31 -22 62 -48z m-1992 -8 c-3
-3 -12 -4 -19 -1 -8 3 -5 6 6 6 11 1 17 -2 13 -5z m778 -460 c-9 -25 -40 -65
-75 -98 -32 -31 -61 -64 -64 -74 -7 -20 -51 -39 -81 -34 -19 3 -20 7 -13 75 4
40 7 109 7 154 l1 83 43 21 c53 27 127 85 164 129 l28 34 3 -125 c2 -94 -1
-134 -13 -165z m-1148 40 c-3 -3 -12 -4 -19 -1 -8 3 -5 6 6 6 11 1 17 -2 13
-5z m23 -18 c0 -2 -7 -7 -16 -10 -8 -3 -12 -2 -9 4 6 10 25 14 25 6z m727 -2
c-3 -3 -12 -4 -19 -1 -8 3 -5 6 6 6 11 1 17 -2 13 -5z m-677 -8 c0 -11 -19
-15 -25 -6 -3 5 1 10 9 10 9 0 16 -2 16 -4z m77 -12 c-3 -3 -12 -4 -19 -1 -8
3 -5 6 6 6 11 1 17 -2 13 -5z m433 -14 c0 -5 -4 -10 -9 -10 -6 0 -13 5 -16 10
-3 6 1 10 9 10 9 0 16 -4 16 -10z m-213 -7 c-20 -2 -52 -2 -70 0 -17 2 0 4 38
4 39 0 53 -2 32 -4z m110 1 c-3 -3 -12 -4 -19 -1 -8 3 -5 6 6 6 11 1 17 -2 13
-5z m-174 -21 c-13 -2 -33 -2 -45 0 -13 2 -3 4 22 4 25 0 35 -2 23 -4z m-30
-20 c-7 -2 -19 -2 -25 0 -7 3 -2 5 12 5 14 0 19 -2 13 -5z m-649 -68 c15 -58
187 -208 217 -189 8 5 9 3 4 -6 -6 -10 -3 -12 13 -8 12 4 20 3 17 -2 -5 -9 46
-31 138 -61 237 -76 546 -71 787 13 136 48 213 93 280 165 33 35 60 68 60 73
0 6 5 10 10 10 6 0 10 -90 10 -250 0 -231 -2 -253 -22 -307 -59 -158 -284
-293 -567 -339 -135 -22 -396 -14 -501 16 -89 25 -210 69 -227 83 -10 7 -13
-16 -13 -109 l0 -119 43 -22 c94 -49 293 -93 421 -93 69 -1 115 -17 98 -35 -4
-5 1 -5 10 -2 30 11 42 -26 18 -55 l-19 -23 -1 25 c-1 14 -4 19 -7 13 -6 -15
-33 -17 -33 -3 0 6 -4 10 -10 10 -5 0 -10 -10 -10 -22 0 -19 -2 -20 -10 -8 -8
12 -10 11 -10 -7 0 -17 6 -23 21 -23 17 0 19 -3 10 -14 -6 -7 -22 -11 -36 -8
-15 2 -25 0 -25 -7 0 -6 -14 -11 -31 -11 -18 0 -28 -4 -24 -10 4 -7 -2 -9 -17
-5 -12 3 -45 7 -73 10 -27 2 -66 9 -85 15 -51 15 -61 11 -15 -6 22 -8 104 -22
183 -31 121 -14 161 -15 260 -5 191 19 370 75 413 131 17 21 20 38 18 103 -1
43 0 80 2 82 2 1 30 17 61 35 32 18 82 55 112 82 30 27 57 49 60 49 3 0 6 -86
6 -190 0 -184 -1 -193 -25 -240 -122 -241 -609 -375 -1035 -285 -171 36 -317
103 -400 185 -101 99 -94 43 -98 778 -3 595 1 702 22 617z m403 -241 c-3 -3
-12 -4 -19 -1 -8 3 -5 6 6 6 11 1 17 -2 13 -5z m38 -14 c-3 -5 -11 -10 -16
-10 -6 0 -7 5 -4 10 3 6 11 10 16 10 6 0 7 -4 4 -10z m1446 -296 c63 -32 100
-119 80 -186 -15 -47 -61 -101 -101 -118 -43 -18 -121 -8 -160 20 -36 26 -69
90 -70 134 0 16 9 49 21 73 44 90 142 123 230 77z m1181 -453 c97 -44 172 -61
300 -68 224 -11 368 31 579 170 25 16 26 16 48 -7 28 -30 24 -52 -20 -120 -43
-64 -147 -149 -234 -191 -196 -93 -460 -91 -653 7 -108 54 -252 204 -252 262
0 11 10 30 21 42 l22 23 62 -45 c35 -24 92 -57 127 -73z m-1852 -75 c0 -11
-19 -15 -25 -6 -3 5 1 10 9 10 9 0 16 -2 16 -4z m-80 -26 c-8 -5 -19 -10 -25
-10 -5 0 -3 5 5 10 8 5 20 10 25 10 6 0 3 -5 -5 -10z m45 -20 c-3 -5 -12 -10
-18 -10 -7 0 -6 4 3 10 19 12 23 12 15 0z m-230 -21 c-22 -4 -60 -7 -85 -7
l-45 1 50 7 c28 4 66 7 85 7 l35 1 -40 -9z m-111 -64 c-4 -8 -8 -15 -10 -15
-2 0 -4 7 -4 15 0 8 4 15 10 15 5 0 7 -7 4 -15z m2011 -78 c72 -51 167 -117
213 -147 55 -36 82 -60 82 -72 0 -11 -30 -53 -67 -94 -53 -59 -72 -74 -95 -74
-20 0 -64 27 -155 95 -69 52 -135 95 -146 95 -31 0 -341 -107 -410 -141 -164
-82 -312 -209 -394 -337 -93 -144 -154 -325 -168 -493 l-7 -86 73 -23 c237
-73 566 -139 899 -181 149 -18 407 -39 420 -33 3 1 4 117 2 258 l-3 256 -75 0
c-70 0 -78 2 -105 29 -53 53 -36 109 66 221 38 41 109 120 159 175 210 231
227 245 281 245 54 0 85 -27 331 -295 175 -190 204 -230 204 -280 0 -67 -46
-95 -155 -95 l-75 0 0 -237 c0 -131 3 -248 6 -260 5 -19 13 -23 43 -23 58 0
506 47 613 64 254 41 718 153 745 179 17 17 -1 176 -33 283 -44 155 -127 309
-225 418 -58 66 -185 159 -283 208 -94 47 -388 148 -431 148 -23 -1 -59 -23
-148 -95 -151 -121 -156 -122 -249 -20 -50 54 -65 78 -61 93 3 11 43 46 91 78
48 31 139 97 204 146 79 60 125 88 143 88 15 0 107 -27 205 -59 343 -114 515
-212 682 -389 209 -222 339 -553 355 -904 l6 -127 -34 -34 c-39 -39 -169 -85
-439 -156 -372 -97 -879 -168 -1221 -172 -184 -2 -183 -5 -173 317 l7 247 -69
-6 c-38 -4 -84 -7 -101 -7 l-33 0 0 -235 c0 -262 -5 -285 -62 -309 -33 -14
-104 -13 -323 5 -456 37 -918 123 -1288 241 -136 43 -182 71 -191 116 -9 39
10 284 29 378 60 295 204 550 410 724 94 79 218 158 331 211 102 48 419 157
459 158 23 1 63 -22 160 -92z m-2142 -34 c-7 -2 -19 -2 -25 0 -7 3 -2 5 12 5
14 0 19 -2 13 -5z m64 -9 c-3 -3 -12 -4 -19 -1 -8 3 -5 6 6 6 11 1 17 -2 13
-5z"/>
<path d="M7250 6495 c14 -8 30 -14 35 -14 6 0 -1 6 -15 14 -14 8 -29 14 -35
14 -5 0 1 -6 15 -14z"/>
<path d="M7630 6450 c0 -5 5 -10 11 -10 5 0 7 5 4 10 -3 6 -8 10 -11 10 -2 0
-4 -4 -4 -10z"/>
<path d="M7390 6436 c0 -2 9 -6 20 -9 11 -3 18 -1 14 4 -5 9 -34 13 -34 5z"/>
<path d="M7470 6410 c14 -4 32 -8 40 -9 13 -1 13 0 0 9 -8 5 -26 9 -40 9 l-25
-1 25 -8z"/>
<path d="M7655 6410 c-3 -6 1 -7 9 -4 18 7 21 14 7 14 -6 0 -13 -4 -16 -10z"/>
<path d="M2135 5960 c-16 -7 -17 -9 -3 -9 9 -1 20 4 23 9 7 11 7 11 -20 0z"/>
<path d="M1910 3926 l0 -63 93 -35 c218 -83 402 -105 622 -73 121 17 225 46
311 85 l64 29 0 55 c0 31 -2 56 -5 56 -3 0 -22 -8 -43 -19 -109 -56 -310 -94
-492 -94 -199 0 -371 34 -502 100 l-48 23 0 -64z"/>
<path d="M2418 3273 c6 -2 18 -2 25 0 6 3 1 5 -13 5 -14 0 -19 -2 -12 -5z"/>
<path d="M1940 3196 c0 -2 7 -7 16 -10 8 -3 12 -2 9 4 -6 10 -25 14 -25 6z"/>
<path d="M2015 3160 c27 -12 43 -12 25 0 -8 5 -22 9 -30 9 -10 0 -8 -3 5 -9z"/>
<path d="M4782 2215 c0 -16 2 -22 5 -12 2 9 2 23 0 30 -3 6 -5 -1 -5 -18z"/>
<path d="M2174 7291 c7 -11 46 -35 46 -28 0 3 -12 12 -26 22 -15 9 -23 12 -20
6z"/>
<path d="M2344 7098 l-19 -23 23 19 c12 11 22 21 22 23 0 8 -8 2 -26 -19z"/>
<path d="M2300 7070 c-9 -6 -10 -10 -3 -10 6 0 15 5 18 10 8 12 4 12 -15 0z"/>
<path d="M2244 7018 l-19 -23 23 19 c12 11 22 21 22 23 0 8 -8 2 -26 -19z"/>
<path d="M2185 6974 c-18 -16 -22 -22 -9 -15 18 9 53 42 43 41 -2 -1 -17 -12
-34 -26z"/>
<path d="M2152 6810 c0 -14 2 -19 5 -12 2 6 2 18 0 25 -3 6 -5 1 -5 -13z"/>
<path d="M7520 5624 c-174 -37 -287 -99 -405 -219 -136 -138 -202 -290 -212
-491 -10 -196 46 -361 169 -501 85 -97 163 -156 283 -214 158 -75 299 -95 457
-65 206 40 382 143 488 286 127 172 185 371 160 550 -54 391 -385 673 -788
669 -48 0 -116 -7 -152 -15z m318 -319 c168 -40 386 -212 469 -372 l28 -52
-20 -37 c-25 -47 -191 -222 -254 -268 -116 -85 -239 -126 -377 -126 -195 1
-329 58 -488 209 -62 59 -166 197 -166 221 0 34 97 166 182 246 142 134 284
193 468 193 52 1 123 -6 158 -14z"/>
<path d="M7570 5135 c-86 -25 -175 -81 -262 -165 l-80 -77 18 -28 c28 -43 162
-151 234 -189 155 -82 333 -62 485 53 55 42 165 148 165 159 0 14 -125 130
-184 171 -32 22 -84 50 -115 62 -74 28 -189 34 -261 14z m191 -92 c38 -20 54
-38 74 -76 29 -58 31 -91 10 -138 -33 -77 -93 -119 -170 -119 -158 0 -234 194
-119 302 69 64 128 73 205 31z"/>
<path d="M7855 3949 c-48 -15 -235 -22 -292 -12 l-52 10 -32 -95 c-25 -74 -29
-96 -18 -102 20 -13 194 -23 263 -16 59 6 148 26 190 42 16 6 18 4 13 -10 -5
-11 -3 -15 4 -10 14 8 6 123 -11 172 -13 34 -18 36 -65 21z"/>
<path d="M8315 2786 c-11 -7 -83 -51 -160 -96 -229 -136 -297 -181 -291 -196
3 -7 62 -102 132 -210 69 -108 198 -314 286 -458 88 -144 180 -293 204 -333
78 -127 149 -167 279 -161 90 5 126 20 191 80 79 73 109 218 64 316 -20 44
-505 825 -612 985 -32 48 -62 87 -66 86 -4 0 -16 -6 -27 -13z"/>
</g>
</svg>
